<svg width="100%" height="120"
     viewBox="0 0 280 56"
     xmlns="http://www.w3.org/2000/svg"
     preserveAspectRatio="xMidYMid slice">

  <rect width="280" height="56" fill="#0B0B0B"/>

  <!-- ================= ROW 1 ================= -->

  <polygon points="14,14 24,8 34,14 34,26 24,32 14,26" fill="#1A1A1A"/>

  <polygon points="34,14 44,8 54,14 54,26 44,32 34,26" fill="#232020">
    <animate attributeName="fill"
      values="#232020;#2F2626;#232020"
      dur="0.9s" begin="2.4s;9.8s;17.3s" fill="freeze"/>
  </polygon>

  <polygon points="54,14 64,8 74,14 74,26 64,32 54,26" fill="#2C2424"/>

  <polygon points="74,14 84,8 94,14 94,26 84,32 74,26" fill="#352828">
    <animate attributeName="fill"
      values="#352828;#443232;#352828"
      dur="1s" begin="5.1s;13.6s;21.4s" fill="freeze"/>
  </polygon>

  <polygon points="94,14 104,8 114,14 114,26 104,32 94,26" fill="#402424"/>

  <polygon points="114,14 124,8 134,14 134,26 124,32 114,26" fill="#4C2023"/>

  <polygon points="134,14 144,8 154,14 154,26 144,32 134,26" fill="#581C22">
    <animate attributeName="fill"
      values="#581C22;#6A2A2A;#581C22"
      dur="0.8s" begin="3.7s;11.2s;19.9s" fill="freeze"/>
  </polygon>

  <polygon points="154,14 164,8 174,14 174,26 164,32 154,26" fill="#641820"/>

  <polygon points="174,14 184,8 194,14 194,26 184,32 174,26" fill="#71141E"/>

  <polygon points="194,14 204,8 214,14 214,26 204,32 194,26" fill="#7F111C">
    <animate attributeName="fill"
      values="#7F111C;#92222A;#7F111C"
      dur="1.1s" begin="6.4s;14.8s;23.6s" fill="freeze"/>
  </polygon>

  <polygon points="214,14 224,8 234,14 234,26 224,32 214,26" fill="#8E0E1A"/>

  <polygon points="234,14 244,8 254,14 254,26 244,32 234,26" fill="#9E0C18"/>

  <!-- ================= ROW 2 (OFFSET) ================= -->

  <polygon points="24,32 34,26 44,32 44,44 34,50 24,44" fill="#232020"/>

  <polygon points="44,32 54,26 64,32 64,44 54,50 44,44" fill="#2C2424">
    <animate attributeName="fill"
      values="#2C2424;#3A2A2A;#2C2424"
      dur="0.9s" begin="4.9s;12.7s;20.8s" fill="freeze"/>
  </polygon>

  <polygon points="64,32 74,26 84,32 84,44 74,50 64,44" fill="#352828"/>

  <polygon points="84,32 94,26 104,32 104,44 94,50 84,44" fill="#402424"/>

  <polygon points="104,32 114,26 124,32 124,44 114,50 104,44" fill="#4C2023">
    <animate attributeName="fill"
      values="#4C2023;#5E3232;#4C2023"
      dur="1s" begin="7.2s;15.9s;24.5s" fill="freeze"/>
  </polygon>

  <polygon points="124,32 134,26 144,32 144,44 134,50 124,44" fill="#581C22"/>

  <polygon points="144,32 154,26 164,32 164,44 154,50 144,44" fill="#641820"/>

  <polygon points="164,32 174,26 184,32 184,44 174,50 164,44" fill="#71141E">
    <animate attributeName="fill"
      values="#71141E;#84282E;#71141E"
      dur="0.8s" begin="3.3s;10.1s;18.7s" fill="freeze"/>
  </polygon>

  <polygon points="184,32 194,26 204,32 204,44 194,50 184,44" fill="#7F111C"/>

  <polygon points="204,32 214,26 224,32 224,44 214,50 204,44" fill="#8E0E1A"/>

  <polygon points="224,32 234,26 244,32 244,44 234,50 224,44" fill="#9E0C18"/>

</svg>
